<svg width="68" height="68" viewBox="0 0 68 68" fill="none" xmlns="http://www.w3.org/2000/svg">
<circle cx="34" cy="34" r="34" fill="#FFDD00"/>
<path d="M34.5 16C24.8351 16 17 23.2443 17 32.1803C17 38.7801 19.7654 41.9306 23.5527 44.8028L23.5708 44.8106V52.5558C23.571 52.6382 23.594 52.7189 23.6373 52.789C23.6806 52.8591 23.7426 52.9158 23.8162 52.9527C23.8899 52.9897 23.9724 53.0055 24.0545 52.9983C24.1366 52.9912 24.2151 52.9614 24.2812 52.9122L30.9174 47.9852L31.0602 48.0471C32.1949 48.2559 33.3463 48.3608 34.5 48.3604C44.1651 48.3604 52 41.1161 52 32.1803C52 23.2444 44.1651 16 34.5 16ZM28.6338 36.2803C30.3487 36.2803 31.8167 35.2539 32.2576 33.668H34.7951C34.1745 36.7201 31.7987 38.7202 28.6338 38.7202C24.9558 38.7202 22.0393 35.9784 22.0393 32.162C22.0393 28.3455 24.9558 25.6039 28.6338 25.6039C31.8306 25.6039 34.2231 27.644 34.8141 30.7484H32.2843C31.8993 29.0605 30.3826 28.0086 28.6338 28.0086C26.1606 28.0086 24.5157 29.7721 24.5157 32.162C24.508 32.7047 24.6093 33.2436 24.8135 33.7466C25.0177 34.2496 25.3207 34.7065 25.7046 35.0905C26.0886 35.4744 26.5456 35.7775 27.0487 35.9819C27.5518 36.1863 28.0908 36.2877 28.6338 36.2803ZM45.3522 38.4685H43.027V33.2256C43.027 32.0182 42.3241 31.3695 41.2425 31.3695C40.035 31.3695 39.2599 32.1082 39.2599 33.6035V38.4685H36.9338V25.6446H39.2599V30.4685C39.8185 29.6218 40.7201 29.2073 41.9454 29.2073C42.9368 29.2073 43.7481 29.5315 44.3788 30.1981C45.0279 30.865 45.3522 31.7658 45.3522 32.9369V38.4685Z" fill="#231815"/>
</svg>
