<svg width="180" height="51" viewBox="0 0 180 51" fill="none" xmlns="http://www.w3.org/2000/svg">
<path d="M174.564 26.7769H165.501L144.672 47.6054C144.672 47.6054 149.617 48.3414 153.736 47.6054C167.122 45.2133 174.564 26.7769 174.564 26.7769Z" fill="url(#paint0_linear_452_543)"/>
<path d="M144.622 24.2919C140.753 35.1151 144.622 46.9503 144.622 46.9503L164.985 26.5868L164.985 3.92832C164.985 3.92832 149.539 10.5358 144.622 24.2919Z" fill="url(#paint1_linear_452_543)"/>
<path d="M34.3681 32.8897C34.3681 44.4073 27.0083 50.6679 17.6413 50.6679C8.1787 50.6679 0.866699 44.3595 0.866699 32.8897C0.866699 21.3721 8.1787 15.1115 17.6413 15.1115C27.0083 15.1115 34.3681 21.3721 34.3681 32.8897ZM25.0011 32.8897C25.0011 26.5335 22.3726 23.0447 17.6413 23.0447C12.8622 23.0447 10.2337 26.5335 10.2337 32.8897C10.2337 39.2459 12.8622 42.7346 17.6413 42.7346C22.3726 42.7346 25.0011 39.2459 25.0011 32.8897Z" fill="#21366E"/>
<path d="M47.9407 15.5894V50.19H38.9082V15.5894H47.9407Z" fill="#21366E"/>
<path d="M52.7676 50.19V24.2395H61.8001V50.19H52.7676ZM57.2599 21.4199C54.7748 21.4199 52.7676 19.556 52.7676 17.2621C52.7676 14.9681 54.7748 13.1042 57.2599 13.1042C59.7451 13.1042 61.7523 14.9681 61.7523 17.2621C61.7523 19.556 59.7451 21.4199 57.2599 21.4199Z" fill="#21366E"/>
<path d="M71.5494 50.7157C68.9687 50.7157 66.8659 48.6607 66.9137 46.0799C66.8659 43.547 68.9687 41.492 71.5494 41.492C73.9867 41.492 76.1851 43.547 76.1851 46.0799C76.1851 48.6607 73.9867 50.7157 71.5494 50.7157Z" fill="#21366E"/>
<path d="M93.7244 50.6679C85.361 50.6679 80.3429 45.2675 80.3429 37.2864C80.3429 29.3054 85.361 23.905 93.7244 23.905C101.228 23.905 106.007 28.2062 106.102 34.8969H97.691C97.452 32.1728 95.9705 30.6913 93.8677 30.6913C91.287 30.6913 89.5666 32.8419 89.5666 37.1908C89.5666 41.5876 91.287 43.786 93.8677 43.786C95.9705 43.786 97.452 42.3045 97.691 39.5326H106.102C105.959 46.3189 101.323 50.6679 93.7244 50.6679Z" fill="#21366E"/>
<path d="M122.399 50.6679C114.035 50.6679 109.017 45.2675 109.017 37.2864C109.017 29.3054 114.035 23.905 122.399 23.905C130.762 23.905 135.733 29.3054 135.733 37.2864C135.733 45.2675 130.762 50.6679 122.399 50.6679ZM122.447 43.9771C124.98 43.9771 126.509 41.3487 126.509 37.2386C126.509 33.0808 124.98 30.5001 122.447 30.5001C119.818 30.5001 118.241 33.0808 118.241 37.2386C118.241 41.3487 119.818 43.9771 122.447 43.9771Z" fill="#21366E"/>
<defs>
<linearGradient id="paint0_linear_452_543" x1="153.909" y1="47.4807" x2="148.363" y2="33.6371" gradientUnits="userSpaceOnUse">
<stop stop-color="#0029FF" stop-opacity="0"/>
<stop offset="1" stop-color="#0047FF"/>
</linearGradient>
<linearGradient id="paint1_linear_452_543" x1="164.863" y1="3.92839" x2="133.335" y2="15.0846" gradientUnits="userSpaceOnUse">
<stop stop-color="#0047FF"/>
<stop offset="0.713542" stop-color="#0029FF" stop-opacity="0.463542"/>
<stop offset="1" stop-color="#001AFF" stop-opacity="0"/>
</linearGradient>
</defs>
</svg>
