<svg width="70" height="21" viewBox="0 0 70 21" fill="none" xmlns="http://www.w3.org/2000/svg">
<path d="M68.0846 10.9038H64.532L56.3678 19.068C56.3678 19.068 58.3059 19.3565 59.9204 19.068C65.1676 18.1304 68.0846 10.9038 68.0846 10.9038Z" fill="url(#paint0_linear_452_1109)"/>
<path d="M56.3478 9.92974C54.8313 14.1721 56.3478 18.8112 56.3478 18.8112L64.3298 10.8293L64.3298 1.94778C64.3298 1.94778 58.2753 4.53774 56.3478 9.92974Z" fill="url(#paint1_linear_452_1109)"/>
<path d="M13.1316 13.3003C13.1316 17.8148 10.2468 20.2688 6.57518 20.2688C2.8661 20.2688 0 17.7961 0 13.3003C0 8.78568 2.8661 6.3317 6.57518 6.3317C10.2468 6.3317 13.1316 8.78568 13.1316 13.3003ZM9.46001 13.3003C9.46001 10.8088 8.42971 9.44132 6.57518 9.44132C4.70191 9.44132 3.67161 10.8088 3.67161 13.3003C3.67161 15.7917 4.70191 17.1592 6.57518 17.1592C8.42971 17.1592 9.46001 15.7917 9.46001 13.3003Z" fill="#64748B"/>
<path d="M18.4517 6.51902V20.0815H14.9112V6.51902H18.4517Z" fill="#64748B"/>
<path d="M20.3437 20.0815V9.90964H23.8842V20.0815H20.3437ZM22.1046 8.80441C21.1305 8.80441 20.3437 8.07384 20.3437 7.17467C20.3437 6.2755 21.1305 5.54492 22.1046 5.54492C23.0787 5.54492 23.8655 6.2755 23.8655 7.17467C23.8655 8.07384 23.0787 8.80441 22.1046 8.80441Z" fill="#64748B"/>
<path d="M27.7057 20.2876C26.6941 20.2876 25.8699 19.482 25.8886 18.4705C25.8699 17.4777 26.6941 16.6721 27.7057 16.6721C28.661 16.6721 29.5227 17.4777 29.5227 18.4705C29.5227 19.482 28.661 20.2876 27.7057 20.2876Z" fill="#64748B"/>
<path d="M36.3976 20.2688C33.1194 20.2688 31.1525 18.152 31.1525 15.0237C31.1525 11.8953 33.1194 9.77851 36.3976 9.77851C39.3387 9.77851 41.2119 11.4645 41.2494 14.087H37.9524C37.8588 13.0193 37.2781 12.4386 36.4538 12.4386C35.4423 12.4386 34.7679 13.2815 34.7679 14.9862C34.7679 16.7096 35.4423 17.5713 36.4538 17.5713C37.2781 17.5713 37.8588 16.9906 37.9524 15.9041H41.2494C41.1932 18.5641 39.3761 20.2688 36.3976 20.2688Z" fill="#64748B"/>
<path d="M47.6373 20.2688C44.359 20.2688 42.3921 18.152 42.3921 15.0237C42.3921 11.8953 44.359 9.77851 47.6373 9.77851C50.9155 9.77851 52.8637 11.8953 52.8637 15.0237C52.8637 18.152 50.9155 20.2688 47.6373 20.2688ZM47.656 17.6462C48.6488 17.6462 49.2483 16.6159 49.2483 15.0049C49.2483 13.3752 48.6488 12.3636 47.656 12.3636C46.6257 12.3636 46.0075 13.3752 46.0075 15.0049C46.0075 16.6159 46.6257 17.6462 47.656 17.6462Z" fill="#64748B"/>
<defs>
<linearGradient id="paint0_linear_452_1109" x1="59.9884" y1="19.0191" x2="57.8146" y2="13.5928" gradientUnits="userSpaceOnUse">
<stop stop-color="#64748B" stop-opacity="0"/>
<stop offset="1" stop-color="#64748B"/>
</linearGradient>
<linearGradient id="paint1_linear_452_1109" x1="64.282" y1="1.94781" x2="51.9238" y2="6.32072" gradientUnits="userSpaceOnUse">
<stop stop-color="#64748B"/>
<stop offset="0.713542" stop-color="#64748B" stop-opacity="0.463542"/>
<stop offset="1" stop-color="#64748B" stop-opacity="0"/>
</linearGradient>
</defs>
</svg>
