<svg width="82" height="24" viewBox="0 0 82 24" fill="none" xmlns="http://www.w3.org/2000/svg">
<path d="M79.7563 12.295H75.5947L66.0309 21.8588C66.0309 21.8588 68.3012 22.1968 70.1925 21.8588C76.3392 20.7604 79.7563 12.295 79.7563 12.295Z" fill="url(#paint0_linear_458_19)"/>
<path d="M66.0078 11.1541C64.2313 16.1237 66.0078 21.5581 66.0078 21.5581L75.3581 12.2078L75.3581 1.80379C75.3581 1.80379 68.2657 4.83775 66.0078 11.1541Z" fill="url(#paint1_linear_458_19)"/>
<path d="M15.3828 15.1019C15.3828 20.3904 12.0034 23.2651 7.70235 23.2651C3.35743 23.2651 0 20.3685 0 15.1019C0 9.8134 3.35743 6.93874 7.70235 6.93874C12.0034 6.93874 15.3828 9.8134 15.3828 15.1019ZM11.0817 15.1019C11.0817 12.1834 9.87481 10.5814 7.70235 10.5814C5.50795 10.5814 4.30103 12.1834 4.30103 15.1019C4.30103 18.0205 5.50795 19.6224 7.70235 19.6224C9.87481 19.6224 11.0817 18.0205 11.0817 15.1019Z" fill="white"/>
<path d="M21.6149 7.15818V23.0456H17.4674V7.15818H21.6149Z" fill="white"/>
<path d="M23.8312 23.0456V11.13H27.9786V23.0456H23.8312ZM25.8939 9.83535C24.7528 9.83535 23.8312 8.97953 23.8312 7.92622C23.8312 6.87291 24.7528 6.01709 25.8939 6.01709C27.035 6.01709 27.9567 6.87291 27.9567 7.92622C27.9567 8.97953 27.035 9.83535 25.8939 9.83535Z" fill="white"/>
<path d="M32.4552 23.287C31.2702 23.287 30.3047 22.3434 30.3266 21.1585C30.3047 19.9954 31.2702 19.0518 32.4552 19.0518C33.5743 19.0518 34.5838 19.9954 34.5838 21.1585C34.5838 22.3434 33.5743 23.287 32.4552 23.287Z" fill="white"/>
<path d="M42.6372 23.2651C38.797 23.2651 36.4929 20.7854 36.4929 17.1208C36.4929 13.4561 38.797 10.9764 42.6372 10.9764C46.0824 10.9764 48.2768 12.9514 48.3207 16.0236H44.4586C44.3489 14.7728 43.6686 14.0925 42.7031 14.0925C41.5181 14.0925 40.7281 15.08 40.7281 17.0769C40.7281 19.0957 41.5181 20.1051 42.7031 20.1051C43.6686 20.1051 44.3489 19.4249 44.4586 18.1521H48.3207C48.2549 21.2682 46.1263 23.2651 42.6372 23.2651Z" fill="white"/>
<path d="M55.8036 23.2651C51.9634 23.2651 49.6593 20.7854 49.6593 17.1208C49.6593 13.4561 51.9634 10.9764 55.8036 10.9764C59.6438 10.9764 61.926 13.4561 61.926 17.1208C61.926 20.7854 59.6438 23.2651 55.8036 23.2651ZM55.8256 20.1929C56.9886 20.1929 57.6908 18.986 57.6908 17.0988C57.6908 15.1897 56.9886 14.0047 55.8256 14.0047C54.6187 14.0047 53.8945 15.1897 53.8945 17.0988C53.8945 18.986 54.6187 20.1929 55.8256 20.1929Z" fill="white"/>
<defs>
<linearGradient id="paint0_linear_458_19" x1="70.2721" y1="21.8016" x2="67.7257" y2="15.445" gradientUnits="userSpaceOnUse">
<stop stop-color="white" stop-opacity="0"/>
<stop offset="1" stop-color="white"/>
</linearGradient>
<linearGradient id="paint1_linear_458_19" x1="75.3021" y1="1.80383" x2="60.8253" y2="6.92638" gradientUnits="userSpaceOnUse">
<stop stop-color="white"/>
<stop offset="0.713542" stop-color="white" stop-opacity="0.463542"/>
<stop offset="1" stop-color="white" stop-opacity="0"/>
</linearGradient>
</defs>
</svg>
