<svg width="90" height="90" viewBox="0 0 90 90" fill="none" xmlns="http://www.w3.org/2000/svg">
<rect width="90" height="90" rx="12" fill="#21366E"/>
<path d="M46.013 40.5977C45.9076 40.6423 45.7988 40.6897 45.6777 40.7412L45.9538 40.62C45.9722 40.6105 45.9953 40.6044 46.013 40.5977Z" fill="black"/>
<path d="M47.076 59.8752L47.0529 59.9002L47.0304 59.9293C46.4477 60.664 45.3794 60.7947 44.6362 60.2124L44.2934 59.9395L43.9194 59.6422C43.9575 59.5718 43.9868 59.4987 44.0119 59.4228L45.1434 56.1584C45.1944 56.2025 45.2454 56.2438 45.2964 56.283C45.4209 56.3819 45.5378 56.474 45.6487 56.564C45.7106 56.6141 45.7684 56.6588 45.8262 56.7035C45.9037 56.7679 45.9805 56.8281 46.0506 56.8857C46.0954 56.9209 46.1362 56.9527 46.177 56.9879C46.2852 57.0699 46.381 57.1484 46.4633 57.2154C46.6728 57.3793 46.7945 57.4788 46.7945 57.4788C47.5357 58.0645 47.6601 59.1351 47.076 59.8752Z" fill="#EDC4B7"/>
<path d="M60.8723 54.0215L60.8275 54.0798C60.2433 54.8158 59.1669 54.9424 58.4237 54.3601C58.4237 54.3601 58.3183 54.2788 58.1258 54.1278C57.6451 53.7527 56.6305 52.9537 55.3977 51.9861C55.2311 51.8541 55.0617 51.7207 54.8917 51.5866C54.4293 51.2291 53.9499 50.8519 53.4603 50.4687C53.4012 50.4226 53.3393 50.3698 53.2788 50.3278C53.0034 50.1085 52.7246 49.8904 52.4465 49.6717C49.6863 47.5083 46.9181 45.3368 46.7576 45.2054C46.2455 44.7971 45.7049 45.483 46.2204 45.8907C46.4999 46.1107 49.2994 48.3107 51.8011 50.2723C51.8719 50.3272 51.9426 50.3793 52.0147 50.4342C52.1683 50.5554 52.3241 50.6759 52.4771 50.7978C52.6654 50.9474 52.8551 51.0943 53.036 51.2352C53.1197 51.2988 53.2013 51.3652 53.2842 51.4282C53.9438 51.9455 54.5449 52.4134 55.0175 52.7899C55.1209 52.8691 55.2127 52.9429 55.297 53.0065C55.416 53.0986 55.5207 53.1846 55.6173 53.2577C55.6669 53.2977 55.7166 53.3343 55.7601 53.3708C55.7635 53.3708 55.7689 53.3756 55.7689 53.3756C55.7717 53.3817 55.7717 53.3817 55.7744 53.3837C55.9981 53.5557 56.1191 53.6518 56.1191 53.6518C56.8624 54.2342 56.9861 55.3067 56.4034 56.0454L56.3864 56.0597L56.3769 56.0759L56.3571 56.0969C55.7723 56.8363 54.6973 56.9616 53.9567 56.3779C53.9567 56.3779 53.8636 56.3048 53.6915 56.1707C53.6664 56.1484 53.6365 56.1267 53.6052 56.1044C53.5977 56.0962 53.5895 56.0901 53.5827 56.0854C53.544 56.0529 53.4998 56.0211 53.4549 55.9865C53.4359 55.9669 53.4107 55.9507 53.3876 55.9351C53.3624 55.9148 53.3366 55.8931 53.3121 55.8748C53.2529 55.8281 53.1924 55.778 53.1258 55.7279C53.1156 55.717 53.1033 55.7096 53.0897 55.6988C52.9143 55.5633 52.7157 55.4069 52.4981 55.2363C52.4478 55.195 52.3975 55.1577 52.3465 55.1178C52.2459 55.0359 52.1357 54.9533 52.0262 54.8666C51.9154 54.7772 51.8011 54.6871 51.6787 54.5957C51.5822 54.5165 51.4809 54.4393 51.3775 54.3594C50.7084 53.834 49.9631 53.251 49.2097 52.6598C46.8249 50.7957 44.3218 48.826 44.0587 48.6181C43.5432 48.2132 42.9958 48.8951 43.5147 49.304C43.8186 49.5431 46.4359 51.611 48.5446 53.276C48.7364 53.4297 48.9207 53.576 49.1002 53.7148C49.2613 53.8407 49.4143 53.9613 49.5626 54.0791C49.7061 54.1935 49.8468 54.3046 49.9787 54.4102C50.1991 54.5822 50.401 54.7427 50.5839 54.8855C50.6547 54.9397 50.7186 54.9905 50.7791 55.0392C50.8179 55.0704 50.8525 55.0968 50.8831 55.1246C50.9491 55.1753 51.0076 55.2234 51.064 55.2641C51.1647 55.344 51.2558 55.4137 51.3292 55.4746C51.5019 55.6094 51.5985 55.6859 51.5985 55.6859C52.3377 56.2669 52.4655 57.3401 51.88 58.0768L51.8576 58.1059L51.8549 58.112L51.8365 58.1371C51.2517 58.8738 50.1753 58.995 49.4327 58.4106C49.4327 58.4106 49.3355 58.3382 49.1668 58.2007C49.1444 58.1838 49.1158 58.1614 49.0913 58.1432C49.0832 58.1364 49.0771 58.1296 49.0716 58.129C49.0084 58.0795 48.9363 58.0254 48.8608 57.961C48.4664 57.6509 47.8979 57.2054 47.2472 56.6921C47.0969 56.5716 46.9371 56.4456 46.7732 56.3197C46.5128 56.1084 46.2394 55.8917 45.9633 55.673C45.7723 55.52 45.5791 55.367 45.3847 55.2139C45.4159 54.7989 45.3364 54.3852 45.148 54.0026C44.8651 53.4277 44.3755 52.9991 43.7676 52.7912C43.5181 52.7066 43.2563 52.6598 42.9897 52.6598C42.7463 52.6598 42.5062 52.6998 42.2818 52.7668C41.8847 52.4554 41.5841 52.219 41.4332 52.0992C41.4073 52.0281 41.3781 51.9577 41.3441 51.8879C41.0619 51.3131 40.5723 50.8838 39.9644 50.6759C39.7114 50.5906 39.453 50.5493 39.1858 50.5493C38.414 50.5493 37.7061 50.9149 37.2621 51.5081C37.073 50.7483 36.512 50.0915 35.7123 49.8193C35.4601 49.734 35.1969 49.6914 34.9344 49.6914C34.1273 49.6914 33.3942 50.0969 32.9556 50.7375C32.7611 49.9845 32.2035 49.3413 31.4127 49.0704C31.1591 48.9851 30.8973 48.9397 30.6314 48.9397C29.6073 48.9397 28.6941 49.5891 28.3615 50.5554L28.3459 50.6075C28.1929 50.5554 28.0419 50.4917 27.9325 50.4314L22.4938 47.3167C22.2857 47.1989 22.2089 46.928 22.3272 46.7181L28.1439 36.2837C28.2595 36.0731 28.5404 35.9742 28.7655 36.0602L31.5215 37.1213C31.7459 37.2073 32.1172 37.2201 32.347 37.1477L38.9104 35.0466C39.1402 34.9728 39.5217 34.9511 39.7583 34.9958L40.2711 35.0947C40.5077 35.1387 40.5431 35.2924 40.3479 35.4359L39.64 35.9621C39.6339 35.9681 39.6271 35.9715 39.6217 35.981C38.1121 37.0942 36.0483 38.6015 35.101 39.2197C34.1504 39.8386 33.7621 40.8048 34.0606 41.8015C34.438 43.061 35.7865 43.9731 37.2621 43.9731C37.7517 43.9731 38.2351 43.8742 38.7023 43.6799C40.0977 43.1003 42.1499 42.2356 43.856 41.5158C43.8785 41.5131 43.8982 41.5063 43.9165 41.4968L44.5632 41.2185C44.976 41.0432 45.3568 40.8847 45.6825 40.7432L45.9586 40.6227C45.9769 40.6132 46.0007 40.6071 46.0191 40.6003C46.0232 40.6003 46.0232 40.6003 46.0259 40.6003C46.2415 40.5367 46.5311 40.5868 46.6998 40.7215L48.5847 42.2065C48.7724 42.3534 49.0825 42.5985 49.2729 42.7454L55.0475 47.2788L60.2488 51.3584L60.5949 51.6293C61.3334 52.2102 61.4592 53.2848 60.8723 54.0215Z" fill="#EDC4B7"/>
<path d="M46.7674 56.317C46.5035 56.1098 46.2302 55.8931 45.9541 55.6737L45.9568 55.6697C46.2336 55.8904 46.5063 56.1064 46.7674 56.317Z" fill="black"/>
<path d="M52.0147 50.432C51.9433 50.3785 51.8712 50.325 51.7998 50.2702L51.8046 50.2661C51.8746 50.3203 51.9426 50.3751 52.0147 50.432Z" fill="black"/>
<path d="M41.5339 35.5469C41.7263 35.4033 42.0724 35.2246 42.3002 35.1508L48.6861 33.0849C48.9153 33.0104 49.2804 33.0355 49.4974 33.1404L57.6832 37.0894C57.8987 37.1937 58.2619 37.2079 58.4856 37.1212L61.2416 36.0588C61.466 35.9721 61.7455 36.073 61.8625 36.2829L67.6799 46.7174C67.7982 46.9273 67.7329 47.2137 67.5398 47.3552L62.1658 51.2527C61.9706 51.3922 61.6564 51.3875 61.4681 51.2385L46.9569 39.7484C46.7685 39.5995 46.4346 39.5541 46.2143 39.6475C46.2143 39.6475 41.2027 41.771 38.3862 42.9431C35.8736 43.9899 33.484 41.2205 35.5329 39.8832C37.1533 38.8255 41.5339 35.5469 41.5339 35.5469Z" fill="#F5CBB3"/>
<path d="M43.5558 53.3904C44.4772 53.7039 44.9661 54.7013 44.6506 55.6168L43.4069 59.2143C43.0913 60.1298 42.0911 60.6173 41.1717 60.3024C40.2517 59.9883 39.7627 58.9915 40.0783 58.0781L41.3193 54.4778C41.6341 53.5631 42.6351 53.0755 43.5558 53.3904Z" fill="#F5CBB3"/>
<path d="M39.7515 51.2791C40.6722 51.5933 41.1612 52.5907 40.8463 53.5048L39.6033 57.1044C39.2878 58.0199 38.2868 58.5067 37.3674 58.1919C36.4481 57.8784 35.9585 56.881 36.274 55.9648L37.515 52.3673C37.8305 51.4511 38.8308 50.9636 39.7515 51.2791Z" fill="#F5CBB3"/>
<path d="M35.4998 50.4213C36.4178 50.7348 36.9081 51.7329 36.5926 52.647L35.8419 54.8226C35.5263 55.7387 34.5247 56.2249 33.606 55.9114C32.686 55.5972 32.1977 54.5998 32.5126 53.6857L33.2626 51.5094C33.5788 50.5946 34.5791 50.1071 35.4998 50.4213Z" fill="#F5CBB3"/>
<path d="M31.1987 49.6703C32.1181 49.9858 32.607 50.9826 32.2915 51.8974L32.0208 52.6848C31.7046 53.6003 30.7037 54.0885 29.7843 53.7737C28.865 53.4588 28.376 52.4614 28.6916 51.5459L28.9622 50.7591C29.2777 49.8436 30.2794 49.3568 31.1987 49.6703Z" fill="#F5CBB3"/>
<path d="M78.9185 41.7046C79.0967 42.031 78.975 42.444 78.6465 42.6214L70.3995 47.0945C70.0724 47.2726 69.6569 47.1507 69.4788 46.825L63.2683 35.4724C63.0888 35.1453 63.2112 34.7336 63.539 34.5556L71.7874 30.0825C72.1151 29.9044 72.5293 30.0263 72.7067 30.352L78.9185 41.7046Z" fill="#7393EA"/>
<path d="M11.0821 41.7048C10.9039 42.0312 11.0256 42.4442 11.3527 42.6216L19.5997 47.0947C19.9275 47.2727 20.3409 47.1509 20.5198 46.8252L26.7323 35.4726C26.9111 35.1455 26.7887 34.7338 26.4616 34.5557L18.2139 30.082C17.8861 29.9039 17.4713 30.0258 17.2932 30.3515L11.0821 41.7048Z" fill="#7393EA"/>
</svg>
