<svg width="90" height="90" viewBox="0 0 90 90" fill="none" xmlns="http://www.w3.org/2000/svg">
<rect width="90" height="90" rx="12" fill="#E84E4E"/>
<rect x="9.5" y="14.5" width="39" height="60" rx="7.5" fill="#4671FF" stroke="black"/>
<rect x="10" y="14" width="38" height="58" rx="8" fill="#CBD5E1"/>
<rect x="9.5" y="14.5" width="39" height="53" rx="7.5" fill="white" stroke="black"/>
<circle cx="28.5" cy="40.5" r="6.21053" stroke="#4671FF"/>
<circle cx="28.5" cy="40.5" r="7.25" stroke="#4671FF" stroke-width="0.5"/>
<ellipse cx="0.905573" cy="2.113" rx="0.905573" ry="2.113" transform="matrix(-4.37114e-08 -1 -1 4.37114e-08 33.6316 41.4056)" fill="#4671FF" fill-opacity="0.4"/>
<ellipse cx="0.905573" cy="2.113" rx="0.905573" ry="2.113" transform="matrix(-4.37114e-08 -1 -1 4.37114e-08 27.5944 41.4056)" fill="#4671FF" fill-opacity="0.4"/>
<ellipse cx="0.905573" cy="2.113" rx="0.905573" ry="2.113" transform="matrix(-0.5 -0.866025 -0.866025 0.5 33.464 38.6888)" fill="#4671FF" fill-opacity="0.4"/>
<ellipse cx="0.905573" cy="2.113" rx="0.905573" ry="2.113" transform="matrix(-0.5 -0.866025 -0.866025 0.5 28.2356 41.7074)" fill="#4671FF" fill-opacity="0.4"/>
<ellipse cx="25.8187" cy="38.9611" rx="0.905573" ry="2.113" transform="rotate(-60 25.8187 38.9611)" fill="#4671FF" fill-opacity="0.4"/>
<ellipse cx="31.047" cy="41.9796" rx="0.905573" ry="2.113" transform="rotate(-60 31.047 41.9796)" fill="#4671FF" fill-opacity="0.4"/>
<ellipse cx="0.905573" cy="2.113" rx="0.905573" ry="2.113" transform="matrix(-1 8.74228e-08 8.74228e-08 1 29.4056 35.3684)" fill="#4671FF" fill-opacity="0.4"/>
<ellipse cx="0.905573" cy="2.113" rx="0.905573" ry="2.113" transform="matrix(-1 8.74228e-08 8.74228e-08 1 29.4056 41.4056)" fill="#4671FF" fill-opacity="0.4"/>
<ellipse cx="0.905573" cy="2.113" rx="0.905573" ry="2.113" transform="matrix(-0.866025 0.5 0.5 0.866025 26.6888 35.536)" fill="#4671FF" fill-opacity="0.4"/>
<ellipse cx="0.905573" cy="2.113" rx="0.905573" ry="2.113" transform="matrix(-0.866025 0.5 0.5 0.866025 29.7075 40.7643)" fill="#4671FF" fill-opacity="0.4"/>
<ellipse cx="26.9611" cy="43.1813" rx="0.905573" ry="2.113" transform="rotate(-150 26.9611 43.1813)" fill="#4671FF" fill-opacity="0.4"/>
<ellipse cx="29.9797" cy="37.953" rx="0.905573" ry="2.113" transform="rotate(-150 29.9797 37.953)" fill="#4671FF" fill-opacity="0.4"/>
<circle cx="28.5" cy="40.5" r="1.97368" fill="#4671FF"/>
<rect x="49.1415" y="15.6124" width="39" height="60" rx="7.5" transform="rotate(15 49.1415 15.6124)" fill="#4671FF" stroke="black"/>
<rect x="49.7539" y="15.2588" width="38" height="58" rx="8" transform="rotate(15 49.7539 15.2588)" fill="#CBD5E1"/>
<rect x="49.1415" y="15.6124" width="39" height="53" rx="7.5" transform="rotate(15 49.1415 15.6124)" fill="white" stroke="black"/>
<path d="M69.6992 58.5181C69.9414 58.6575 70.1017 58.8589 70.1803 59.1222C70.2808 59.3727 70.2985 59.6197 70.2333 59.8632C70.1448 60.1935 69.9682 60.435 69.7037 60.5878C69.4391 60.7405 69.1591 60.7773 68.8635 60.6981C68.8114 60.6841 68.7615 60.6614 68.714 60.6301C68.6619 60.6161 68.612 60.5934 68.5645 60.5621C67.7049 60.0149 66.8146 59.3385 65.8938 58.5327C64.995 57.7142 64.1299 56.8395 63.2985 55.9086C62.4845 54.9823 61.7725 54.0927 61.1625 53.2398C61.064 53.1202 60.9939 53.1387 60.952 53.2952L59.729 57.8592C59.6498 58.1547 59.4693 58.3766 59.1873 58.5246C58.9181 58.6948 58.627 58.7379 58.3141 58.654C58.0185 58.5748 57.788 58.3919 57.6225 58.1054C57.4524 57.8362 57.407 57.5538 57.4862 57.2582L58.6671 52.8507C58.7091 52.6942 58.6575 52.6431 58.5125 52.6974C57.7201 53.0814 56.8629 53.4294 55.9407 53.7414C55.0232 54.0359 54.0976 54.2911 53.164 54.5068C52.235 54.7051 51.3635 54.8629 50.5494 54.9802C49.7353 55.0975 49.0267 55.1685 48.4238 55.1933C48.367 55.1967 48.3125 55.1914 48.2603 55.1775C48.2209 55.1855 48.1751 55.1826 48.1229 55.1686C47.8447 55.0941 47.6293 54.9245 47.4765 54.66C47.3365 54.4175 47.3085 54.1398 47.3923 53.8268C47.4575 53.5834 47.5877 53.376 47.7827 53.2046C47.995 53.0379 48.2323 52.9524 48.4943 52.9481C49.4649 52.8727 50.4605 52.7388 51.481 52.5464C52.5016 52.354 53.4904 52.1065 54.4473 51.8038C55.4216 51.5058 56.3003 51.1822 57.0834 50.833C57.1449 50.8122 57.1716 50.7821 57.1635 50.7427C57.1601 50.6859 57.1236 50.6481 57.0541 50.6295L53.5593 49.6931C53.0899 49.5673 52.7256 49.2926 52.4664 48.8691C52.2292 48.4329 52.1735 47.98 52.2993 47.5106L53.9834 41.2253C54.1092 40.7559 54.3815 40.4002 54.8004 40.1584C55.2413 39.9038 55.6965 39.8395 56.1659 39.9652L61.5645 41.4118C61.6688 41.4397 61.7349 41.4016 61.7629 41.2972L62.0913 40.0715C62.1193 39.9672 62.0811 39.901 61.9768 39.8731L53.24 37.532C52.9444 37.4528 52.7115 37.2786 52.5414 37.0094C52.3887 36.7449 52.3543 36.4561 52.4381 36.1432C52.5173 35.8476 52.6892 35.6235 52.9537 35.4707C53.2229 35.3006 53.514 35.2575 53.827 35.3413L62.5638 37.6823C62.6681 37.7103 62.7342 37.6721 62.7622 37.5678L63.0207 36.6028C63.0999 36.3073 63.2741 36.0744 63.5433 35.9043C63.8299 35.7388 64.1297 35.698 64.4427 35.7819C64.7382 35.8611 64.9688 36.044 65.1342 36.3306C65.3043 36.5998 65.3475 36.8909 65.2636 37.2038L65.0051 38.1688C64.9771 38.2731 65.0153 38.3392 65.1196 38.3672L73.8564 40.7082C74.152 40.7874 74.3738 40.968 74.5219 41.2499C74.692 41.5191 74.7375 41.8015 74.6583 42.0971C74.5744 42.41 74.3915 42.6405 74.1096 42.7886C73.845 42.9413 73.565 42.9781 73.2694 42.8989L64.5326 40.5579C64.4283 40.5299 64.3622 40.5681 64.3342 40.6725L64.0058 41.8982C63.9778 42.0025 64.016 42.0687 64.1203 42.0966L69.571 43.5571C70.0405 43.6829 70.3938 43.9639 70.6309 44.4002C70.8902 44.8237 70.9569 45.2702 70.8311 45.7396L69.147 52.0249C69.0212 52.4943 68.7378 52.8563 68.2969 53.1109C67.8781 53.3527 67.4339 53.4108 66.9645 53.285L63.7045 52.4115C63.6349 52.3928 63.5781 52.3962 63.534 52.4217C63.5073 52.4518 63.513 52.4999 63.5512 52.5661C64.3199 53.592 65.2387 54.6488 66.3076 55.7365C67.3811 56.8068 68.5117 57.734 69.6992 58.5181ZM60.5512 45.1934C60.6555 45.2213 60.7216 45.1832 60.7496 45.0788L61.078 43.8531C61.106 43.7488 61.0678 43.6826 60.9635 43.6547L56.2691 42.3968C56.1648 42.3689 56.0986 42.407 56.0707 42.5114L55.7422 43.7371C55.7143 43.8414 55.7525 43.9076 55.8568 43.9355L60.5512 45.1934ZM67.8536 47.1501C67.9579 47.178 68.024 47.1398 68.052 47.0355L68.3804 45.8097C68.4084 45.7054 68.3702 45.6393 68.2659 45.6113L63.5193 44.3395C63.415 44.3115 63.3489 44.3497 63.3209 44.454L62.9925 45.6798C62.9645 45.7841 63.0027 45.8503 63.107 45.8782L67.8536 47.1501ZM60.0857 47.5564C60.1137 47.4521 60.0755 47.386 59.9712 47.358L55.2768 46.1002C55.1725 46.0722 55.1063 46.1104 55.0784 46.2147L54.7429 47.4666C54.715 47.5709 54.7532 47.637 54.8575 47.665L59.5519 48.9228C59.6562 48.9508 59.7223 48.9126 59.7503 48.8083L60.0857 47.5564ZM62.527 48.0429C62.4227 48.0149 62.3566 48.0531 62.3286 48.1574L61.9932 49.4092C61.9652 49.5136 62.0034 49.5797 62.1077 49.6077L66.8543 50.8795C66.9586 50.9074 67.0247 50.8693 67.0527 50.7649L67.3881 49.5131C67.4161 49.4088 67.3779 49.3426 67.2736 49.3147L62.527 48.0429Z" fill="black"/>
<g style="mix-blend-mode:saturation">
<rect width="90" height="90" rx="12" fill="white"/>
</g>
</svg>
