<svg width="90" height="90" viewBox="0 0 90 90" fill="none" xmlns="http://www.w3.org/2000/svg">
<rect width="90" height="90" rx="12" fill="#E84E4E"/>
<path d="M65.8218 57.1513C59.4918 57.1513 55.564 52.769 55.564 45.0757C55.564 37.3498 59.4918 33 65.8218 33C72.1518 33 76.0796 37.3823 76.0796 45.0757C76.0796 52.8015 72.1518 57.1513 65.8218 57.1513ZM65.8218 52.1847C68.0941 52.1522 69.6847 50.0747 69.6847 45.0757C69.6847 40.2064 68.0941 37.9666 65.8218 37.9666C63.5495 37.9666 61.9913 40.2064 61.9589 45.0757C61.9589 50.0747 63.5495 52.1522 65.8218 52.1847Z" fill="white"/>
<path d="M44.1118 57.1513C37.7818 57.1513 33.854 52.769 33.854 45.0757C33.854 37.3498 37.7818 33 44.1118 33C50.4418 33 54.3696 37.3823 54.3696 45.0757C54.3696 52.8015 50.4418 57.1513 44.1118 57.1513ZM44.1118 52.1847C46.3841 52.1522 47.9747 50.0747 47.9747 45.0757C47.9747 40.2064 46.3841 37.9666 44.1118 37.9666C41.8395 37.9666 40.2814 40.2064 40.2489 45.0757C40.2489 50.0747 41.8395 52.1522 44.1118 52.1847Z" fill="white"/>
<path d="M14.8702 56.8267V52.3795L23.6024 45.0432C25.3877 43.5175 26.4914 42.4138 26.4914 40.7258C26.4914 38.908 25.193 37.7718 23.3751 37.7718C21.5573 37.7718 20.3238 38.908 20.3238 40.9206H14.4482C14.4482 36.0189 17.9865 33 23.3751 33C28.926 33 32.4968 35.8566 32.4968 40.2064C32.4968 42.9332 31.1334 45.238 25.8422 49.6852L23.4725 51.7302V51.8601H32.7565V56.8267H14.8702Z" fill="white"/>
<path fill-rule="evenodd" clip-rule="evenodd" d="M84 24.2056L76 13L68 24.2056L72.4445 24.2056L72.4445 45L79.5556 45L79.5556 24.2056L84 24.2056Z" fill="url(#paint0_linear_458_68)"/>
<defs>
<linearGradient id="paint0_linear_458_68" x1="76" y1="13" x2="76" y2="47.6667" gradientUnits="userSpaceOnUse">
<stop stop-color="white"/>
<stop offset="1" stop-color="white" stop-opacity="0"/>
</linearGradient>
</defs>
</svg>
