<svg width="90" height="90" viewBox="0 0 90 90" fill="none" xmlns="http://www.w3.org/2000/svg">
<rect width="90" height="90" rx="12" fill="#1E293B"/>
<path d="M35.0751 21.2402C34.8431 18.8566 36.6149 16.7389 39.0325 16.5101L54.7791 15.0201C57.1968 14.7914 59.3447 16.5382 59.5767 18.9218L61.088 34.447C61.32 36.8306 59.5482 38.9483 57.1306 39.1771L41.384 40.6671C38.9664 40.8958 36.8184 39.149 36.5864 36.7654L35.0751 21.2402Z" fill="white"/>
<path fill-rule="evenodd" clip-rule="evenodd" d="M54.8632 15.8833L39.1165 17.3733C37.1824 17.5563 35.765 19.2505 35.9506 21.1574L37.4619 36.6825C37.6475 38.5894 39.3659 39.9869 41.2999 39.8039L57.0466 38.3139C58.9807 38.1309 60.3981 36.4367 60.2125 34.5298L58.7012 19.0047C58.5156 17.0978 56.7972 15.7003 54.8632 15.8833ZM39.0325 16.5101C36.6149 16.7389 34.8431 18.8566 35.0751 21.2402L36.5864 36.7654C36.8184 39.149 38.9664 40.8958 41.384 40.6671L57.1306 39.1771C59.5482 38.9483 61.32 36.8306 61.088 34.447L59.5767 18.9218C59.3447 16.5382 57.1968 14.7914 54.7791 15.0201L39.0325 16.5101Z" fill="#1E293B"/>
<path d="M49.6131 27.6988C49.6943 28.5327 49.0745 29.2735 48.2287 29.3535C47.383 29.4336 46.6316 28.8225 46.5504 27.9886C46.4693 27.1548 47.0891 26.414 47.9348 26.3339C48.7805 26.2539 49.532 26.865 49.6131 27.6988Z" fill="#1E293B"/>
<path d="M43.6009 23.0871C43.6821 23.9209 43.0622 24.6618 42.2165 24.7418C41.3708 24.8218 40.6194 24.2107 40.5382 23.3769C40.457 22.543 41.0768 21.8022 41.9226 21.7222C42.7683 21.6422 43.5197 22.2533 43.6009 23.0871Z" fill="#1E293B"/>
<path d="M54.6267 22.0439C54.7079 22.8777 54.0881 23.6185 53.2424 23.6986C52.3966 23.7786 51.6452 23.1675 51.564 22.3337C51.4829 21.4998 52.1027 20.759 52.9484 20.6789C53.7942 20.5989 54.5456 21.21 54.6267 22.0439Z" fill="#1E293B"/>
<path d="M44.6003 33.3538C44.6815 34.1877 44.0616 34.9285 43.2159 35.0085C42.3702 35.0885 41.6188 34.4775 41.5376 33.6436C41.4564 32.8098 42.0762 32.0689 42.922 31.9889C43.7677 31.9089 44.5191 32.52 44.6003 33.3538Z" fill="#1E293B"/>
<path d="M55.6261 32.3105C55.7073 33.1444 55.0875 33.8852 54.2418 33.9653C53.396 34.0453 52.6446 33.4342 52.5634 32.6003C52.4823 31.7665 53.1021 31.0257 53.9478 30.9456C54.7936 30.8656 55.545 31.4767 55.6261 32.3105Z" fill="#1E293B"/>
<path d="M23.9809 39.9436C24.9915 37.7591 27.6069 36.7959 29.8226 37.7923L44.254 44.2819C46.4697 45.2783 47.4466 47.8569 46.436 50.0415L39.8538 64.2699C38.8432 66.4544 36.2278 67.4176 34.0121 66.4212L19.5807 59.9316C17.365 58.9352 16.3881 56.3565 17.3987 54.172L23.9809 39.9436Z" fill="white"/>
<path fill-rule="evenodd" clip-rule="evenodd" d="M43.8881 45.073L29.4566 38.5834C27.6841 37.7863 25.5918 38.5568 24.7833 40.3044L18.201 54.5328C17.3926 56.2805 18.1741 58.3434 19.9467 59.1405L34.3781 65.6301C36.1506 66.4272 38.243 65.6567 39.0514 63.9091L45.6337 49.6806C46.4421 47.933 45.6606 45.8701 43.8881 45.073ZM29.8226 37.7923C27.6069 36.7959 24.9915 37.7591 23.9809 39.9436L17.3987 54.172C16.3881 56.3565 17.365 58.9352 19.5807 59.9316L34.0121 66.4212C36.2278 67.4176 38.8432 66.4544 39.8538 64.2699L46.436 50.0415C47.4466 47.8569 46.4697 45.2783 44.254 44.2819L29.8226 37.7923Z" fill="#1E293B"/>
<path d="M31.2192 47.8417C30.8549 48.629 29.9123 48.9762 29.1137 48.6171C28.3151 48.2579 27.963 47.3285 28.3272 46.5412C28.6915 45.7538 29.6341 45.4067 30.4327 45.7658C31.2313 46.1249 31.5834 47.0543 31.2192 47.8417Z" fill="#1E293B"/>
<path d="M38.5341 51.1311C38.1699 51.9185 37.2272 52.2656 36.4286 51.9065C35.63 51.5474 35.2779 50.618 35.6422 49.8306C36.0064 49.0433 36.9491 48.6961 37.7477 49.0552C38.5462 49.4143 38.8984 50.3437 38.5341 51.1311Z" fill="#1E293B"/>
<path d="M28.1545 54.4667C27.8117 55.2077 26.8864 55.5173 26.0878 55.1582C25.2892 54.7991 24.9197 53.9072 25.2625 53.1662C25.6053 52.4251 26.5306 52.1155 27.3292 52.4747C28.1278 52.8338 28.4973 53.7256 28.1545 54.4667Z" fill="#1E293B"/>
<path d="M35.4694 57.7561C35.1266 58.4972 34.2013 58.8068 33.4027 58.4476C32.6041 58.0885 32.2346 57.1967 32.5774 56.4556C32.9203 55.7146 33.8456 55.405 34.6441 55.7641C35.4427 56.1232 35.8122 57.0151 35.4694 57.7561Z" fill="#1E293B"/>
<path d="M59.8674 42.3802C61.8451 40.9903 64.5912 41.4443 66.0009 43.3941L75.183 56.0943C76.5928 58.0442 76.1323 60.7517 74.1546 62.1416L61.2733 71.1945C59.2956 72.5844 56.5495 72.1305 55.1397 70.1806L45.9577 57.4804C44.5479 55.5305 45.0083 52.8231 46.9861 51.4332L59.8674 42.3802Z" fill="white"/>
<path fill-rule="evenodd" clip-rule="evenodd" d="M74.4668 56.5977L65.2847 43.8975C64.1569 42.3376 61.9601 41.9744 60.3779 43.0863L47.4966 52.1393C45.9144 53.2512 45.5461 55.4172 46.6739 56.9771L55.8559 69.6773C56.9837 71.2372 59.1806 71.6003 60.7628 70.4884L73.6441 61.4355C75.2263 60.3235 75.5946 58.1576 74.4668 56.5977ZM66.0009 43.3941C64.5912 41.4443 61.8451 40.9903 59.8674 42.3802L46.9861 51.4332C45.0083 52.8231 44.5479 55.5305 45.9577 57.4804L55.1397 70.1806C56.5495 72.1305 59.2956 72.5844 61.2733 71.1945L74.1546 62.1416C76.1323 60.7517 76.5928 58.0442 75.183 56.0943L66.0009 43.3941Z" fill="#1E293B"/>
<path d="M61.4631 58.0224C60.7712 58.5087 59.8106 58.3499 59.3174 57.6677C58.8242 56.9856 58.9853 56.0385 59.6771 55.5523C60.369 55.066 61.3296 55.2248 61.8228 55.907C62.316 56.5891 62.1549 57.5362 61.4631 58.0224Z" fill="#1E293B"/>
</svg>
