<svg width="61" height="61" viewBox="0 0 61 61" fill="none" xmlns="http://www.w3.org/2000/svg">
<rect width="61" height="61" rx="8" fill="#F1F5F9"/>
<path d="M31.0001 27C25.4779 27 21 31.2596 21 36.6375C21 44.0681 31.0282 48.0105 31.0001 48C30.9729 48.0106 41 44.0682 41 36.6375C41 31.2628 36.5221 27 31.0001 27ZM31.0001 40.5398C30.2512 40.5394 29.5192 40.323 28.8967 39.9179C28.2743 39.5128 27.7892 38.9372 27.5029 38.264C27.2167 37.5907 27.142 36.85 27.2883 36.1354C27.4347 35.4209 27.7956 34.7646 28.3253 34.2496C28.855 33.7345 29.5297 33.3838 30.2643 33.2419C30.9988 33.0999 31.7601 33.173 32.4519 33.4519C33.1438 33.7308 33.7351 34.2031 34.1511 34.8089C34.5671 35.4148 34.7891 36.127 34.7891 36.8556C34.7902 37.3402 34.693 37.8203 34.503 38.2683C34.3131 38.7163 34.0341 39.1234 33.6821 39.4662C33.3301 39.8091 32.912 40.081 32.4517 40.2663C31.9915 40.4516 31.4982 40.5467 31.0001 40.5461V40.5398Z" fill="#FF6F0F"/>
<path d="M32.9157 14C30.5458 14 28.8946 15.631 28.636 17.5566C25.4753 16.6977 23 19.0619 23 21.661C23 23.6506 24.3896 25.2587 26.241 25.7807C27.735 26.2009 30.4249 25.888 30.4249 25.888C30.4106 25.2447 31.0124 24.5385 31.9408 23.8952C34.5812 22.0683 36.645 21.2063 36.963 18.7143C37.2964 16.1065 35.3305 14 32.9157 14Z" fill="#00A05B"/>
</svg>
