<svg width="61" height="61" viewBox="0 0 61 61" fill="none" xmlns="http://www.w3.org/2000/svg">
<rect width="61" height="61" rx="8" fill="#F1F5F9"/>
<path d="M33.4804 16.7825C32.462 16.4612 31.3709 16.2854 30.2434 16.2854C26.9519 16.2854 24.0059 17.7705 22.0359 20.1103L27.0974 24.3657L33.4804 16.7825Z" fill="#1A73E8"/>
<path d="M22.0359 20.1104C20.4132 22.0377 19.5242 24.4769 19.5264 26.9965C19.5264 29.0089 19.9264 30.6456 20.5872 32.1065L27.0974 24.3657L22.0359 20.1104Z" fill="#EA4335"/>
<path d="M30.2435 22.9046C31.0249 22.9053 31.7898 23.1293 32.4481 23.5502C33.1065 23.971 33.6309 24.5713 33.9595 25.2802C34.2882 25.9891 34.4074 26.7772 34.3032 27.5516C34.199 28.326 33.8757 29.0545 33.3713 29.6513L39.7482 22.0681C38.4393 19.5462 36.1827 17.6472 33.4744 16.7883L27.1035 24.3715C27.4874 23.9118 27.9676 23.5421 28.5102 23.2886C29.0529 23.0351 29.6446 22.904 30.2435 22.9046Z" fill="#4285F4"/>
<path d="M30.2435 31.1001C27.9824 31.1001 26.1457 29.2634 26.1457 27.0024C26.1431 26.0396 26.4825 25.1073 27.1035 24.3716L20.5872 32.1124C21.7025 34.5795 23.5513 36.5617 25.4547 39.0591L33.3713 29.6513C32.9867 30.1058 32.5076 30.4708 31.9673 30.7211C31.4271 30.9713 30.8388 31.1006 30.2435 31.1001Z" fill="#FBBC04"/>
<path d="M33.2136 41.6234C36.79 36.0345 40.9544 33.4946 40.9544 26.9964C40.9544 25.2143 40.518 23.5352 39.7481 22.0562L25.4607 39.0592C26.0669 39.8533 26.6791 40.6959 27.2731 41.6294C29.4432 44.9876 28.8431 47.0001 30.2434 47.0001C31.6436 47.0001 31.0435 44.9815 33.2136 41.6234Z" fill="#34A853"/>
</svg>
