<svg width="61" height="61" viewBox="0 0 61 61" fill="none" xmlns="http://www.w3.org/2000/svg">
<g clip-path="url(#clip0_452_914)">
<rect width="61" height="61" rx="8" fill="#03CF5D"/>
<path d="M34.1218 29.523L27.4824 20H22V37.8H27.7494V28.277L34.3888 37.8H39.889V20H34.1218V29.523Z" fill="white"/>
<path d="M30.5106 -2C16.9422 -2 12.9739 -1.986 12.2026 -1.92199C9.41808 -1.69047 7.6854 -1.25194 5.79776 -0.311857C4.34303 0.410704 3.19575 1.24827 2.06346 2.42237C0.00134611 4.56356 -1.24842 7.19778 -1.70083 10.329C-1.92079 11.8492 -1.98478 12.1592 -1.99778 19.9239C-2.00278 22.5121 -1.99778 25.9184 -1.99778 30.4873C-1.99778 44.0484 -1.98278 48.0137 -1.91779 48.7838C-1.69284 51.494 -1.26792 53.1992 -0.368085 55.0643C1.35159 58.6346 4.63597 61.3149 8.50525 62.3149C9.84499 62.66 11.3247 62.85 13.2244 62.94C14.0292 62.975 22.2327 63 30.4411 63C38.6496 63 46.858 62.99 47.6429 62.95C49.8425 62.8465 51.1197 62.675 52.532 62.3099C56.4262 61.3049 59.6506 58.6646 61.4053 55.0443C62.2876 53.2242 62.7351 51.454 62.9375 48.8853C62.9815 48.3253 63 39.396 63 30.4788C63 21.56 62.98 12.6472 62.936 12.0872C62.7311 9.47697 62.2836 7.72182 61.3728 5.86667C60.6254 4.34804 59.7956 3.21394 58.5908 2.05434C56.4407 0.000169277 53.8112 -1.24994 50.6778 -1.70197C49.1596 -1.92149 48.8572 -1.9865 41.0886 -2H30.5106Z" fill="url(#paint0_radial_452_914)"/>
<path d="M30.5106 -2C16.9422 -2 12.9739 -1.986 12.2026 -1.92199C9.41808 -1.69047 7.6854 -1.25194 5.79776 -0.311857C4.34303 0.410704 3.19575 1.24827 2.06346 2.42237C0.00134611 4.56356 -1.24842 7.19778 -1.70083 10.329C-1.92079 11.8492 -1.98478 12.1592 -1.99778 19.9239C-2.00278 22.5121 -1.99778 25.9184 -1.99778 30.4873C-1.99778 44.0484 -1.98278 48.0137 -1.91779 48.7838C-1.69284 51.494 -1.26792 53.1992 -0.368085 55.0643C1.35159 58.6346 4.63597 61.3149 8.50525 62.3149C9.84499 62.66 11.3247 62.85 13.2244 62.94C14.0292 62.975 22.2327 63 30.4411 63C38.6496 63 46.858 62.99 47.6429 62.95C49.8425 62.8465 51.1197 62.675 52.532 62.3099C56.4262 61.3049 59.6506 58.6646 61.4053 55.0443C62.2876 53.2242 62.7351 51.454 62.9375 48.8853C62.9815 48.3253 63 39.396 63 30.4788C63 21.56 62.98 12.6472 62.936 12.0872C62.7311 9.47697 62.2836 7.72182 61.3728 5.86667C60.6254 4.34804 59.7956 3.21394 58.5908 2.05434C56.4407 0.000169277 53.8112 -1.24994 50.6778 -1.70197C49.1596 -1.92149 48.8572 -1.9865 41.0886 -2H30.5106Z" fill="url(#paint1_radial_452_914)"/>
<path d="M30.7279 18C27.2715 18 26.8378 18.0151 25.4802 18.0769C24.1253 18.1389 23.2005 18.3534 22.3913 18.6682C21.5542 18.9933 20.8442 19.4281 20.1368 20.1358C19.4289 20.8432 18.994 21.5533 18.6679 22.3901C18.3524 23.1996 18.1376 24.1247 18.0766 25.4791C18.0159 26.8367 18 27.2708 18 30.7273C18 34.1838 18.0154 34.6163 18.0769 35.9738C18.1392 37.3288 18.3537 38.2536 18.6682 39.0628C18.9935 39.8999 19.4283 40.61 20.136 41.3174C20.8431 42.0254 21.5532 42.4613 22.3897 42.7864C23.1995 43.1011 24.1245 43.3156 25.4792 43.3777C26.8367 43.4394 27.2702 43.4545 30.7264 43.4545C34.183 43.4545 34.6155 43.4394 35.973 43.3777C37.3279 43.3156 38.2538 43.1011 39.0635 42.7864C39.9003 42.4613 40.6093 42.0254 41.3165 41.3174C42.0244 40.61 42.4592 39.8999 42.7853 39.0631C43.0982 38.2536 43.313 37.3285 43.3766 35.9741C43.4376 34.6165 43.4535 34.1838 43.4535 30.7273C43.4535 27.2708 43.4376 26.837 43.3766 25.4794C43.313 24.1245 43.0982 23.1996 42.7853 22.3904C42.4592 21.5533 42.0244 20.8432 41.3165 20.1358C40.6085 19.4278 39.9006 18.993 39.0627 18.6682C38.2514 18.3534 37.326 18.1389 35.9712 18.0769C34.6136 18.0151 34.1814 18 30.724 18H30.7279ZM29.5862 20.2936C29.9251 20.293 30.3032 20.2936 30.7279 20.2936C34.126 20.2936 34.5288 20.3058 35.8707 20.3667C37.1115 20.4235 37.785 20.6308 38.2336 20.805C38.8276 21.0357 39.251 21.3115 39.6962 21.7569C40.1416 22.2024 40.4174 22.6266 40.6486 23.2206C40.8228 23.6687 41.0304 24.3422 41.0868 25.5831C41.1478 26.9247 41.1611 27.3278 41.1611 30.7244C41.1611 34.1209 41.1478 34.524 41.0868 35.8656C41.0301 37.1066 40.8228 37.78 40.6486 38.2281C40.4179 38.8221 40.1416 39.245 39.6962 39.6902C39.2507 40.1356 38.8278 40.4114 38.2336 40.6421C37.7855 40.8171 37.1115 41.0239 35.8707 41.0806C34.529 41.1416 34.126 41.1549 30.7279 41.1549C27.3296 41.1549 26.9269 41.1416 25.5852 41.0806C24.3444 41.0234 23.6709 40.816 23.222 40.6418C22.6281 40.4111 22.2038 40.1354 21.7584 39.6899C21.313 39.2445 21.0372 38.8213 20.806 38.2271C20.6318 37.779 20.4242 37.1055 20.3677 35.8646C20.3067 34.5229 20.2946 34.1199 20.2946 30.7212C20.2946 27.3225 20.3067 26.9216 20.3677 25.5799C20.4245 24.339 20.6318 23.6655 20.806 23.2169C21.0367 22.6229 21.313 22.1987 21.7584 21.7532C22.2038 21.3078 22.6281 21.032 23.222 20.8008C23.6706 20.6258 24.3444 20.419 25.5852 20.362C26.7593 20.3089 27.2143 20.293 29.5862 20.2904V20.2936ZM37.5215 22.4068C36.6783 22.4068 35.9942 23.0901 35.9942 23.9336C35.9942 24.7767 36.6783 25.4608 37.5215 25.4608C38.3646 25.4608 39.0487 24.7767 39.0487 23.9336C39.0487 23.0904 38.3646 22.4068 37.5215 22.4068ZM30.7279 24.1913C27.1185 24.1913 24.1922 27.1178 24.1922 30.7273C24.1922 34.3368 27.1185 37.2619 30.7279 37.2619C34.3373 37.2619 37.2627 34.3368 37.2627 30.7273C37.2627 27.1178 34.3373 24.1913 30.7279 24.1913ZM30.7279 26.4848C33.0708 26.4848 34.9702 28.3841 34.9702 30.7273C34.9702 33.0702 33.0708 34.9697 30.7279 34.9697C28.3849 34.9697 26.4857 33.0702 26.4857 30.7273C26.4857 28.3841 28.3849 26.4848 30.7279 26.4848Z" fill="white"/>
</g>
<defs>
<radialGradient id="paint0_radial_452_914" cx="0" cy="0" r="1" gradientUnits="userSpaceOnUse" gradientTransform="translate(15.2657 68.0064) rotate(-90) scale(64.4198 59.9155)">
<stop stop-color="#FFDD55"/>
<stop offset="0.1" stop-color="#FFDD55"/>
<stop offset="0.5" stop-color="#FF543E"/>
<stop offset="1" stop-color="#C837AB"/>
</radialGradient>
<radialGradient id="paint1_radial_452_914" cx="0" cy="0" r="1" gradientUnits="userSpaceOnUse" gradientTransform="translate(-12.8878 2.68249) rotate(78.6806) scale(28.7959 118.698)">
<stop stop-color="#3771C8"/>
<stop offset="0.128" stop-color="#3771C8"/>
<stop offset="1" stop-color="#6600FF" stop-opacity="0"/>
</radialGradient>
<clipPath id="clip0_452_914">
<rect width="61" height="61" rx="8" fill="white"/>
</clipPath>
</defs>
</svg>
