<svg width="61" height="61" viewBox="0 0 61 61" fill="none" xmlns="http://www.w3.org/2000/svg">
<rect width="61" height="61" rx="8" fill="#03CF5D"/>
<path d="M20.9292 39.4532C21.1139 39.1704 21.4288 39 21.7665 39H38.9867C39.3165 39 39.625 39.1625 39.8114 39.4344L43.9263 45.4344C44.3814 46.098 43.9063 47 43.1016 47H17.8476C17.0531 47 16.5759 46.1183 17.0103 45.4532L20.9292 39.4532Z" fill="#006EFF"/>
<path d="M42.1076 25.7204C42.1076 32.1934 30.7845 43.0462 30.7845 43.0462C30.7845 43.0462 19.4614 32.1934 19.4614 25.7204C19.4614 19.2474 24.5309 14 30.7845 14C37.0381 14 42.1076 19.2474 42.1076 25.7204Z" fill="white"/>
<circle cx="30.7845" cy="25.3231" r="8.36923" fill="#03CF5D"/>
<path d="M30.5101 20.5299C30.6153 20.2913 30.9538 20.2913 31.059 20.5299L32.2006 23.1174C32.2441 23.2161 32.3373 23.2839 32.4447 23.2948L35.2584 23.5809C35.5177 23.6072 35.6223 23.9291 35.428 24.1029L33.3199 25.9882C33.2394 26.0602 33.2038 26.1698 33.2266 26.2752L33.824 29.0396C33.879 29.2944 33.6052 29.4934 33.3799 29.3622L30.9354 27.9399C30.8421 27.8856 30.7269 27.8856 30.6336 27.9399L28.1892 29.3622C27.9638 29.4934 27.69 29.2944 27.7451 29.0396L28.3424 26.2752C28.3652 26.1698 28.3296 26.0602 28.2492 25.9882L26.1411 24.1029C25.9467 23.9291 26.0513 23.6072 26.3107 23.5809L29.1244 23.2948C29.2317 23.2839 29.3249 23.2161 29.3685 23.1174L30.5101 20.5299Z" fill="white"/>
</svg>
